<?xml version="1.0" standalone="no"?>
<!DOCTYPE svg PUBLIC "-//W3C//DTD SVG 20010904//EN"
 "http://www.w3.org/TR/2001/REC-SVG-20010904/DTD/svg10.dtd">
<svg version="1.0" xmlns="http://www.w3.org/2000/svg"
 width="1000.000000pt" height="1000.000000pt" viewBox="0 0 1000.000000 1000.000000"
 preserveAspectRatio="xMidYMid meet">
<metadata>
Created by potrace 1.14, written by Peter Selinger 2001-2017
</metadata>
<g transform="translate(0.000000,1000.000000) scale(0.100000,-0.100000)"
fill="#000000" stroke="none">
<path d="M4844 9645 c-20 -14 -53 -112 -60 -180 -5 -43 0 -65 37 -155 23 -58
52 -121 64 -140 83 -133 175 -337 190 -420 3 -18 7 -36 9 -39 2 -3 8 -44 12
-91 13 -136 7 -365 -11 -463 -9 -49 -18 -99 -19 -112 -1 -13 -7 -30 -13 -37
-12 -16 -35 -93 -40 -133 -2 -16 -7 -41 -12 -55 -9 -27 -8 -65 4 -170 9 -76
40 -138 91 -176 46 -35 136 -41 215 -13 30 10 57 18 61 19 13 0 31 -44 30 -73
-1 -39 -12 -48 -60 -53 -22 -2 -69 -11 -103 -20 -35 -8 -74 -18 -86 -21 -73
-17 -157 -151 -156 -250 0 -37 -4 -53 -13 -53 -7 0 -17 -7 -22 -16 -8 -15 -13
-15 -38 -2 -34 16 -108 6 -137 -20 -10 -9 -39 -18 -65 -22 l-48 -6 2 48 c6
132 -73 296 -169 353 -32 18 -245 85 -272 85 -2 0 -12 14 -21 32 -17 33 -31
138 -19 138 4 0 32 -16 63 -34 77 -47 182 -62 236 -34 51 27 146 129 156 170
14 49 4 131 -26 233 -44 145 -63 210 -68 235 -2 14 -9 46 -15 72 -12 53 -25
144 -24 173 1 11 4 63 7 115 4 52 9 132 11 177 7 107 18 164 49 246 43 116
116 413 120 490 5 117 -24 177 -85 177 -40 0 -63 -13 -107 -62 -49 -53 -52
-61 -116 -235 -78 -211 -87 -251 -102 -427 -2 -28 -6 -57 -9 -65 -19 -62 -32
-260 -21 -331 24 -157 26 -201 11 -207 -6 -2 -32 65 -59 147 -47 147 -48 153
-42 237 4 47 8 89 10 92 2 3 7 31 10 61 4 30 11 80 16 110 5 30 12 73 15 95 3
22 17 81 32 130 35 122 52 241 40 280 -28 83 -85 132 -132 115 -34 -13 -142
-139 -179 -209 -19 -36 -37 -86 -40 -111 -4 -25 -10 -72 -15 -105 -9 -65 -7
-445 4 -535 9 -84 53 -233 102 -349 33 -78 41 -106 32 -112 -9 -5 -22 15 -45
69 -17 42 -49 115 -69 162 -54 126 -77 238 -74 360 3 154 0 375 -6 409 -4 19
-20 56 -37 82 -65 98 -167 83 -193 -29 -3 -10 -14 -53 -26 -97 -11 -44 -23
-89 -26 -100 -2 -11 -6 -76 -8 -145 -6 -272 66 -504 232 -743 30 -43 51 -82
48 -87 -18 -29 -99 9 -182 86 -35 33 -49 58 -82 151 -44 122 -58 174 -66 252
-3 28 -7 74 -10 102 -10 99 -87 257 -143 298 -65 46 -110 12 -134 -99 -14 -65
-16 -175 -5 -225 4 -18 17 -105 19 -130 5 -57 104 -279 141 -317 7 -7 40 -47
72 -88 77 -97 96 -113 177 -152 64 -32 67 -34 61 -63 -7 -40 -6 -39 -50 -25
-83 28 -214 135 -291 239 -59 80 -104 110 -176 116 -30 3 -44 -2 -62 -21 -21
-20 -23 -30 -18 -66 22 -147 142 -327 258 -389 112 -60 156 -80 207 -95 31 -9
67 -26 80 -36 l24 -19 -40 7 c-50 8 -115 25 -224 58 -103 32 -134 33 -161 4
-38 -41 -19 -126 44 -191 81 -84 153 -105 334 -101 l132 3 0 -40 0 -39 -77 1
c-43 0 -91 -2 -108 -6 -16 -4 -27 -4 -23 0 11 11 -10 45 -28 45 -9 0 -29 -9
-44 -20 -32 -22 -46 -24 -141 -14 -54 5 -71 3 -92 -11 -15 -9 -28 -15 -28 -11
-1 3 -3 11 -4 16 -1 6 -3 17 -4 26 0 8 -14 28 -30 44 -23 24 -35 28 -66 25
-48 -4 -115 -51 -137 -95 -20 -40 -23 -121 -7 -168 9 -26 8 -35 -4 -47 -21
-20 -46 -19 -53 3 -3 9 -16 37 -29 62 -16 30 -21 50 -15 61 11 18 24 104 21
139 -2 32 -20 89 -37 115 -7 11 -15 33 -18 48 -5 29 -59 100 -85 111 -14 7
-44 -12 -37 -23 7 -11 -7 -28 -30 -35 -17 -5 -24 1 -39 34 -22 49 -58 89 -107
119 -54 32 -168 86 -203 96 -64 18 -183 14 -283 -10 -29 -7 -60 -13 -97 -21
-166 -32 -320 -131 -409 -262 -64 -95 -87 -191 -86 -367 2 -164 16 -209 81
-252 l43 -28 -55 -8 c-82 -13 -122 -17 -146 -17 -15 0 -23 -7 -25 -22 -2 -14
-13 -24 -30 -29 -42 -11 -140 -23 -178 -21 -19 0 -38 -4 -41 -10 -4 -6 11 -38
34 -70 40 -57 41 -60 22 -71 -11 -6 -37 -10 -59 -8 -34 2 -44 -3 -83 -41 -25
-23 -51 -55 -59 -70 -8 -16 -21 -28 -28 -28 -33 0 -21 -30 30 -79 29 -28 58
-51 64 -51 16 0 12 -15 -10 -35 -37 -34 -98 -151 -135 -260 -32 -94 -37 -125
-40 -217 -2 -60 1 -111 6 -114 5 -3 9 -29 9 -57 0 -115 34 -158 85 -111 14 13
32 24 40 24 8 0 17 4 20 10 10 17 25 11 34 -12 6 -17 4 -28 -8 -42 -9 -10 -15
-21 -14 -25 4 -12 -9 -51 -17 -51 -19 0 -17 -42 4 -68 35 -42 38 -61 16 -89
-25 -33 -29 -123 -5 -123 9 0 18 -6 21 -14 7 -19 89 -76 110 -76 10 0 28 -10
41 -22 21 -20 27 -21 55 -10 17 6 35 9 39 6 11 -6 12 -44 2 -45 -5 -1 -23 -3
-41 -5 -41 -5 -72 -21 -72 -37 0 -7 -13 -18 -29 -25 -30 -13 -44 -41 -31 -63
5 -7 3 -21 -5 -32 -9 -13 -11 -26 -6 -36 14 -26 22 -103 12 -115 -5 -6 -12
-28 -16 -48 -9 -46 5 -50 55 -13 47 34 73 33 67 -3 -7 -41 -72 -163 -107 -199
-30 -31 -113 -83 -131 -83 -14 0 -122 -71 -141 -93 -25 -28 -71 -178 -58 -191
6 -6 26 -9 45 -8 25 2 37 -3 44 -16 9 -16 4 -26 -24 -55 -19 -20 -35 -45 -35
-57 0 -29 1 -26 -16 -66 -11 -27 -13 -50 -8 -88 8 -50 10 -71 13 -101 2 -31
32 -28 67 5 35 35 45 35 46 4 0 -20 -10 -91 -17 -111 -5 -16 52 -93 69 -93 17
0 96 57 96 70 0 18 18 10 23 -10 3 -12 -2 -25 -12 -33 -21 -15 -45 -56 -37
-65 3 -3 -1 -16 -10 -30 -9 -14 -14 -35 -11 -50 3 -14 -1 -49 -8 -76 -25 -96
-28 -160 -11 -194 9 -17 16 -41 16 -54 0 -13 11 -35 25 -50 32 -34 59 -27 91
23 24 39 43 50 45 27 1 -7 3 -51 4 -98 5 -146 14 -203 36 -223 10 -10 19 -21
20 -25 7 -76 38 -131 128 -229 36 -39 81 -90 99 -112 21 -25 51 -46 80 -57 58
-22 74 -33 68 -50 -8 -21 36 -77 69 -87 17 -5 38 -16 47 -25 10 -8 24 -12 32
-9 9 4 18 1 22 -4 3 -6 17 -9 30 -6 19 3 24 0 24 -18 0 -13 9 -26 24 -33 18
-8 23 -16 19 -31 -8 -31 -29 -26 -69 16 -41 42 -58 33 -42 -24 11 -40 5 -63
-17 -63 -28 0 -23 -82 7 -124 11 -15 22 -44 23 -63 4 -41 20 -63 47 -63 16 0
19 -5 14 -25 -5 -19 -1 -28 19 -41 19 -13 23 -20 14 -30 -13 -15 -4 -34 17
-34 14 0 16 -5 18 -45 2 -40 23 -48 122 -46 11 0 38 -8 58 -19 27 -13 44 -16
61 -10 16 6 27 4 37 -6 8 -8 24 -16 36 -17 12 -1 22 -5 22 -10 0 -5 -15 -6
-34 -3 -41 8 -60 -10 -50 -48 9 -36 0 -32 -25 10 -19 31 -24 34 -37 23 -12
-10 -15 -25 -11 -58 3 -25 10 -47 16 -49 6 -2 16 -13 22 -25 10 -19 7 -18 -18
6 -16 15 -37 27 -47 27 -15 0 -17 -5 -12 -32 11 -55 60 -92 141 -103 22 -4 68
-13 101 -20 34 -8 73 -16 85 -19 13 -2 36 -9 51 -14 14 -6 51 -8 83 -5 43 5
63 12 87 35 17 16 32 27 33 26 2 -2 6 -18 10 -36 6 -28 4 -32 -14 -33 -12 -1
-25 -3 -31 -4 -5 -1 -14 -3 -20 -4 -5 0 -10 -8 -10 -16 0 -8 3 -14 8 -14 4 1
14 1 22 0 11 -1 11 -4 2 -13 -33 -33 14 -42 92 -17 33 10 72 19 86 19 14 0 66
11 115 26 50 14 95 26 100 28 42 12 95 41 95 51 0 8 -4 25 -9 38 -9 22 -7 26
15 31 27 7 44 1 44 -17 0 -26 87 -153 144 -210 61 -62 171 -127 241 -143 17
-4 49 -15 72 -25 23 -11 59 -21 80 -24 81 -9 112 -14 223 -34 63 -11 151 -25
195 -31 44 -6 91 -13 105 -16 14 -2 41 -7 60 -10 56 -9 190 -43 255 -66 161
-55 277 -123 384 -223 39 -37 71 -62 71 -56 0 15 119 131 134 131 8 0 19 7 26
15 40 49 296 151 452 180 13 3 34 7 48 9 32 7 82 14 230 36 130 19 167 25 260
40 30 5 75 12 100 15 25 4 59 8 75 11 17 2 44 6 60 8 104 14 286 121 381 223
39 41 70 93 94 157 10 26 12 27 33 14 18 -12 106 -33 127 -31 138 17 242 5
278 -33 27 -28 67 -40 85 -26 7 6 21 37 30 69 25 84 28 87 63 68 27 -14 47
-14 122 0 9 2 29 4 43 4 35 1 79 43 74 70 -3 15 1 21 14 21 21 0 37 32 56 114
20 81 19 89 -5 83 -35 -9 -44 27 -22 84 8 21 15 25 39 22 24 -4 39 4 79 41 27
25 53 46 57 46 11 0 46 42 47 56 0 6 12 17 26 25 31 16 70 74 80 116 8 37 43
130 61 166 9 17 15 60 16 110 l2 82 74 42 c41 24 76 43 78 43 17 0 128 116
187 194 62 83 84 124 120 226 15 41 29 82 33 90 4 8 8 29 9 45 20 242 21 257
13 308 -6 37 7 117 20 117 11 -1 41 -48 44 -69 5 -33 23 -47 41 -32 12 10 18
8 31 -12 21 -32 41 -40 58 -23 10 10 13 40 10 112 -6 218 -23 313 -69 408 -19
37 -31 72 -28 77 12 20 53 8 74 -21 43 -60 67 -25 74 105 4 62 8 81 20 83 9 2
16 -1 16 -7 0 -6 9 -11 19 -11 20 0 31 18 31 53 0 11 5 35 12 54 11 30 9 38
-20 92 -18 33 -32 62 -32 66 0 3 10 3 23 0 27 -7 39 5 56 54 13 39 0 66 -50
109 -16 13 -29 29 -29 35 0 15 -63 87 -76 87 -5 0 -29 11 -54 24 -25 13 -61
26 -81 30 -27 5 -39 13 -43 29 -4 14 -23 29 -54 43 -45 19 -50 25 -66 77 -10
33 -27 62 -40 71 -54 35 -67 69 -50 133 5 19 11 22 32 16 15 -3 31 -6 37 -5 5
1 20 3 33 5 31 5 39 14 62 81 18 54 19 61 4 91 -32 68 -103 105 -163 84 -38
-13 -55 1 -44 36 5 18 9 40 12 83 1 7 13 17 28 23 47 18 86 75 71 104 -2 2 14
22 35 43 28 28 40 51 44 78 3 22 12 50 20 63 21 33 22 105 1 128 -8 10 -18 34
-21 53 -5 30 -4 32 6 16 26 -40 50 -67 54 -62 3 3 24 -4 47 -16 22 -11 41 -20
41 -19 0 1 8 -1 18 -5 26 -10 30 -1 28 63 -2 75 -24 148 -61 202 -17 24 -30
51 -31 60 0 9 0 47 -1 85 0 63 -32 219 -59 287 -10 26 -45 49 -74 49 -16 0
-35 30 -35 56 0 12 5 15 23 10 12 -4 27 -8 32 -9 6 -2 16 -6 23 -10 7 -5 22
-5 35 -1 21 8 29 9 54 12 13 2 33 62 33 100 0 33 -33 76 -86 112 -25 16 -48
30 -51 30 -3 0 -11 7 -18 17 -8 11 -30 17 -65 19 -68 3 -76 12 -50 59 24 43
19 75 -13 76 -44 1 -173 36 -204 55 -62 38 -93 52 -131 59 -41 7 -42 7 -22 23
12 10 25 33 30 52 33 126 42 157 51 175 8 17 6 93 -5 180 -5 38 -29 98 -78
194 -56 109 -75 132 -138 169 -25 15 -73 45 -106 68 -61 40 -171 73 -262 78
-41 3 -304 -64 -352 -89 -57 -29 -144 -106 -243 -214 -53 -58 -57 -66 -53
-102 5 -44 -2 -49 -29 -19 -14 15 -19 37 -19 88 -1 60 -3 67 -22 70 -28 4
-110 -87 -142 -158 -32 -73 -34 -175 -5 -240 27 -57 42 -115 38 -137 -2 -10
-4 -21 -4 -24 -1 -4 -8 -9 -16 -13 -10 -4 -19 5 -29 27 -7 18 -20 39 -27 47
-8 8 -28 33 -44 55 -17 22 -32 42 -35 45 -3 3 -11 18 -18 33 -7 16 -21 31 -32
34 -11 3 -24 20 -31 42 -14 43 -28 63 -40 55 -5 -3 -12 8 -15 24 -4 18 -14 32
-24 35 -20 5 -30 -11 -30 -48 0 -12 -7 -25 -14 -28 -8 -3 -18 -22 -21 -41 -9
-47 -27 -60 -88 -61 -29 -1 -59 -5 -68 -9 -11 -5 -26 2 -44 18 -27 25 -27 27
-10 46 10 11 24 20 32 20 14 0 16 10 13 47 -1 16 11 31 44 55 25 17 46 37 46
43 0 6 13 32 29 57 25 40 29 54 25 95 -6 64 -13 95 -26 110 -15 18 -48 -3 -48
-30 0 -36 -18 -50 -113 -92 -49 -21 -121 -62 -160 -91 -40 -30 -92 -60 -116
-69 -60 -20 -140 -20 -148 1 -10 26 17 41 117 69 114 32 175 61 323 154 56 36
69 50 112 128 72 127 95 182 100 230 3 24 7 56 10 71 12 70 14 150 4 180 -10
31 -51 62 -82 62 -36 0 -130 -144 -166 -252 -20 -59 -102 -176 -182 -259 -108
-110 -148 -130 -162 -80 -4 18 3 25 45 43 91 39 220 215 303 412 24 57 46 117
48 133 3 15 10 50 16 76 25 108 31 397 9 466 -21 67 -40 73 -87 27 -21 -21
-50 -59 -64 -85 -25 -45 -62 -172 -71 -241 -39 -302 -161 -591 -273 -649 -21
-11 -23 -10 -23 19 0 17 33 115 74 218 77 195 120 326 131 402 4 25 9 59 12
75 9 47 9 205 0 260 -12 71 -98 314 -129 365 -15 24 -35 33 -54 22 -42 -23
-124 -215 -124 -290 0 -21 4 -61 9 -88 24 -128 32 -438 14 -524 -15 -71 -15
-72 -34 -145 -13 -53 -52 -140 -68 -149 -15 -10 -53 46 -48 69 10 38 15 60 30
120 9 33 20 87 26 120 6 33 13 76 17 95 14 84 20 196 18 350 -2 148 -5 177
-33 284 -38 147 -66 208 -122 269 -50 53 -92 70 -143 56 -45 -12 -51 -21 -75
-112 -30 -115 -12 -216 64 -365 18 -37 36 -78 38 -92 3 -14 10 -38 16 -53 31
-80 48 -414 28 -553 -9 -65 -30 -127 -44 -131 -19 -7 -52 37 -47 61 3 11 7
131 9 266 4 187 2 257 -9 295 -7 28 -16 73 -20 101 -3 28 -18 91 -32 140 -14
49 -33 114 -41 143 -21 80 -53 136 -129 231 -89 111 -114 133 -179 157 -44 17
-58 18 -71 8z m2599 -2128 c2 -7 3 -55 1 -107 -3 -64 0 -103 8 -119 44 -83
172 -87 247 -8 l23 26 39 -31 c46 -37 63 -33 89 24 24 53 36 32 20 -36 -13
-59 -29 -91 -88 -172 -29 -41 -53 -64 -66 -65 -12 -1 -41 -3 -66 -6 -91 -11
-194 -7 -226 10 -28 14 -34 14 -44 2 -9 -11 -6 -23 15 -59 15 -25 31 -46 36
-46 19 0 8 -16 -18 -27 -16 -7 -48 -21 -73 -32 -25 -10 -69 -35 -99 -55 -30
-20 -56 -35 -57 -33 -1 1 10 37 24 80 23 66 32 80 62 96 45 23 48 49 14 101
-15 22 -25 42 -23 43 81 55 118 116 146 237 24 103 23 113 -14 130 -38 18 -42
37 -10 50 32 13 54 12 60 -3z m-5182 -147 c16 -9 17 -14 6 -30 -6 -11 -17 -20
-22 -20 -6 0 -19 -6 -29 -13 -16 -12 -16 -14 4 -40 16 -21 20 -36 16 -65 -4
-29 3 -52 31 -110 47 -93 62 -108 117 -116 47 -7 66 -28 102 -114 l15 -36 -33
38 c-25 29 -41 38 -68 39 -31 2 -35 -1 -38 -25 -2 -19 2 -28 17 -33 33 -10 73
-71 87 -133 20 -84 18 -87 -28 -49 -24 18 -71 42 -106 52 -74 22 -88 35 -72
65 11 20 7 90 -5 111 -9 14 -24 11 -74 -13 -57 -28 -90 -27 -173 7 -68 27 -77
38 -92 108 -4 15 -12 27 -19 27 -7 0 -19 17 -26 38 -8 20 -16 43 -19 51 -4 10
-1 11 15 3 23 -13 32 -8 63 38 13 19 30 41 37 48 14 15 16 13 27 -38 8 -37 69
-68 129 -65 60 2 70 11 57 55 -18 61 -5 172 25 220 8 13 31 13 56 0z m3915
-176 c-4 -19 -13 -46 -22 -59 -15 -23 -17 -23 -40 -8 -32 21 -99 24 -149 6
-22 -8 -56 -14 -76 -15 -45 0 -152 30 -145 41 3 5 31 8 61 6 34 -1 62 3 73 11
10 8 46 13 93 14 69 0 77 2 102 28 15 15 27 33 27 38 0 6 6 16 13 23 10 10 18
6 40 -19 23 -26 27 -38 23 -66z m-2556 -117 c40 -16 162 -16 182 0 14 11 128
18 128 8 0 -4 -7 -19 -16 -34 -31 -53 -119 -85 -222 -82 -53 2 -77 -11 -90
-46 -20 -59 27 -106 106 -106 66 0 173 34 235 75 44 29 59 34 95 30 23 -2 44
-8 47 -12 10 -16 -46 -60 -113 -88 -49 -20 -71 -35 -80 -56 -19 -38 -8 -71 29
-89 29 -13 36 -13 87 5 31 11 72 28 91 37 20 10 43 16 51 13 15 -5 64 -52 58
-57 -14 -11 -138 -71 -198 -95 -103 -43 -198 -62 -310 -64 -84 -1 -99 2 -133
22 -21 13 -45 38 -53 54 -22 43 -28 120 -14 176 28 113 28 203 0 237 -9 10 -3
25 26 65 30 42 38 48 48 36 6 -9 27 -22 46 -29z m2580 -9 l23 -21 -26 -13
c-33 -18 -43 -45 -22 -61 10 -6 22 -10 29 -7 7 3 22 -15 35 -42 30 -59 26
-164 -7 -212 -12 -16 -22 -35 -22 -41 0 -6 -12 -11 -26 -11 -14 0 -35 -5 -47
-12 -13 -7 -80 -13 -167 -15 -132 -3 -149 -2 -192 18 -36 17 -48 28 -48 44 0
21 -31 71 -55 87 -15 11 9 10 41 -3 74 -28 209 -1 218 44 9 42 2 72 -19 75
-11 2 -33 10 -50 17 -16 7 -47 18 -67 25 -45 14 -88 46 -88 66 0 11 6 13 21 9
12 -4 31 -8 42 -10 12 -2 46 -8 76 -13 58 -10 134 -9 171 3 35 11 120 75 120
90 0 18 33 8 60 -17z m1831 -780 c10 -13 42 -69 69 -125 29 -59 62 -110 78
-122 24 -18 25 -19 5 -14 -17 4 -23 1 -23 -12 0 -16 -7 -17 -59 -11 -43 5 -60
3 -63 -6 -11 -29 -8 -131 3 -146 7 -9 0 -4 -15 11 -22 22 -34 27 -55 22 -24
-5 -35 2 -79 47 -57 58 -74 57 -75 -6 -1 -37 -11 -40 -58 -21 -9 3 -21 -1 -29
-10 -7 -8 -18 -15 -25 -15 -16 0 -40 48 -37 75 5 34 -35 127 -65 156 -42 38
-81 62 -93 54 -11 -7 -37 41 -27 52 4 3 24 -1 44 -10 35 -16 69 -24 101 -26 6
-1 12 -8 12 -16 0 -9 7 -29 16 -46 11 -23 20 -29 34 -24 45 14 72 15 105 1 19
-8 35 -20 35 -26 0 -6 10 -10 23 -8 28 4 30 35 5 99 -9 26 -15 49 -12 52 8 7
92 -1 113 -11 38 -19 46 -9 44 51 -1 31 1 57 4 57 3 0 13 -10 24 -22z m-881
-34 c19 -1 37 -3 40 -3 3 -1 30 -23 60 -51 29 -27 67 -55 84 -61 45 -18 75
-47 69 -68 -3 -11 5 -26 19 -37 13 -11 29 -31 35 -46 12 -27 12 -27 -20 -21
-41 8 -75 30 -82 54 -4 11 -33 33 -67 49 -46 23 -64 28 -79 20 -10 -6 -19 -15
-19 -20 0 -5 -16 2 -36 15 -20 14 -41 25 -45 25 -5 0 -6 6 -3 14 3 9 -12 34
-36 60 -22 24 -43 55 -45 69 -5 24 -5 24 43 14 26 -5 63 -11 82 -13z m-5376
-89 c18 -18 12 -70 -11 -97 -24 -27 -11 -43 33 -40 54 3 68 -7 54 -43 -9 -24
-7 -36 17 -81 23 -44 30 -51 45 -43 10 5 18 20 18 33 0 26 19 46 68 71 l34 17
-8 -34 c-10 -41 -9 -78 3 -151 9 -52 8 -60 -14 -92 -13 -19 -28 -35 -34 -35
-5 0 -9 -16 -7 -36 3 -33 1 -36 -37 -50 -22 -7 -41 -14 -43 -14 -1 0 -1 14 0
31 2 20 12 39 29 52 15 12 30 36 33 53 6 26 1 38 -30 75 -39 47 -53 59 -70 59
-12 0 -54 -80 -54 -104 0 -9 -8 -19 -17 -23 -10 -3 -30 -19 -44 -36 -36 -41
-63 -32 -53 18 5 29 1 43 -21 75 -31 44 -37 47 -59 25 -8 -8 -27 -15 -43 -15
-16 0 -35 -6 -42 -12 -6 -7 -1 8 12 33 14 26 30 73 37 105 23 112 90 225 155
258 36 19 31 19 49 1z m5640 0 c17 -8 37 -25 45 -37 12 -20 12 -21 0 -11 -8 6
-34 23 -59 37 -48 28 -38 36 14 11z m-4684 -6 c36 -1 58 -10 64 -26 3 -10 9
-23 12 -30 3 -7 -11 -20 -34 -32 -39 -20 -39 -21 -37 -69 3 -56 10 -72 31 -72
17 0 19 -41 2 -58 -7 -7 -25 -12 -40 -12 -21 0 -28 -5 -28 -19 0 -10 7 -24 15
-31 12 -10 10 -20 -15 -69 -32 -65 -53 -86 -75 -77 -14 5 -13 10 6 35 20 28
20 30 4 55 -15 22 -16 31 -6 52 6 14 11 38 11 53 0 16 6 33 13 39 15 13 15 44
-1 92 l-12 35 -82 0 c-133 -1 -183 -24 -240 -112 -47 -73 -72 -80 -74 -21 -2
48 6 89 16 83 4 -2 15 4 25 15 10 11 22 20 27 20 10 0 17 5 73 55 75 66 191
107 280 99 28 -2 57 -5 65 -5z m4316 -43 c26 -6 30 -11 26 -32 -2 -13 1 -31 8
-39 11 -13 7 -15 -21 -16 -19 -1 -44 0 -56 0 -12 1 -28 -7 -36 -19 -9 -12 -20
-19 -26 -16 -9 6 -61 108 -61 120 0 13 113 14 166 2z m-62 -212 c3 -7 -5 -26
-18 -41 -26 -31 -24 -53 4 -53 17 0 16 -3 -7 -26 -24 -25 -26 -25 -47 -7 -11
10 -23 20 -26 23 -3 3 -24 18 -47 34 -24 16 -44 33 -44 37 -4 29 -2 35 16 40
40 12 164 7 169 -7z m-5567 -111 c20 -39 21 -46 8 -77 -15 -35 -48 -52 -63
-32 -14 17 -32 76 -32 102 0 28 27 56 49 52 9 -2 26 -22 38 -45z m1598 -189
c22 -4 57 -18 78 -31 41 -26 40 -40 -7 -65 -27 -15 -87 -28 -81 -18 7 12 -29
39 -61 46 -21 4 -34 1 -43 -10 -10 -12 -18 -13 -32 -5 -21 11 -59 4 -59 -11 0
-5 -13 -7 -30 -4 -20 4 -34 1 -46 -10 -22 -22 -28 -15 -13 18 11 24 21 30 42
27 4 -1 18 4 30 11 12 7 34 13 49 14 14 0 41 13 60 28 19 16 41 25 53 22 11
-3 38 -8 60 -12z m3088 -86 c9 -5 17 -13 17 -18 0 -6 34 -43 76 -84 69 -66 86
-77 158 -102 45 -15 84 -32 88 -37 6 -11 3 -71 -7 -119 -8 -34 21 -51 76 -46
48 4 49 -6 12 -70 -26 -43 -28 -57 -30 -157 -4 -246 -5 -240 43 -298 13 -16
24 -38 24 -49 0 -20 -1 -19 -26 5 -14 14 -39 29 -56 32 -31 7 -94 66 -104 97
-6 20 -29 24 -39 8 -5 -8 -11 -8 -20 0 -19 15 -45 1 -45 -25 0 -16 -10 -27
-34 -39 -57 -27 -110 -19 -83 13 26 30 26 49 1 86 -38 56 -31 66 42 69 34 1
46 -3 50 -16 5 -16 8 -17 42 -2 43 17 73 12 101 -17 19 -21 51 -23 58 -3 2 5
-13 30 -34 54 -34 39 -37 48 -36 99 1 80 4 90 25 97 20 6 20 6 22 47 1 18 -7
38 -22 54 -13 14 -39 49 -57 77 -60 90 -66 96 -83 96 -9 0 -35 14 -56 30 -22
17 -45 30 -51 30 -27 0 -83 36 -126 81 -38 39 -46 53 -42 76 9 51 55 63 116
31z m-2409 -104 c36 -14 14 -53 -48 -84 -15 -8 -32 -24 -37 -36 -4 -12 -18
-25 -31 -29 -13 -4 -37 -18 -55 -31 -17 -13 -36 -24 -41 -24 -6 0 -23 -15 -39
-32 -16 -18 -39 -41 -50 -51 -21 -18 -21 -18 -38 28 -10 25 -15 48 -12 51 3 3
24 10 48 15 23 6 55 21 71 34 16 14 36 25 44 25 8 0 14 6 14 14 0 8 9 18 20
21 11 4 28 17 36 31 9 13 25 24 35 24 11 0 24 11 31 25 11 25 24 30 52 19z
m3175 -406 c-6 -48 4 -90 27 -118 15 -17 32 -29 38 -27 6 2 13 23 16 48 4 35
9 43 22 41 11 -2 25 9 36 27 17 28 19 29 33 13 8 -9 22 -38 32 -64 31 -81 56
-109 122 -133 33 -12 74 -36 91 -53 21 -21 43 -33 65 -35 31 -2 37 -9 80 -87
50 -91 101 -145 129 -137 34 9 44 -7 33 -52 -10 -39 -8 -46 38 -135 50 -95 57
-125 40 -169 -14 -35 1 -82 25 -82 11 0 20 8 22 20 5 29 23 75 31 75 7 0 41
-58 41 -70 0 -5 -14 -22 -32 -38 l-31 -30 14 -49 c15 -53 16 -57 18 -77 2 -20
71 -107 81 -101 15 10 50 -47 50 -82 0 -57 37 -55 112 7 27 23 32 33 31 71 -1
39 2 45 20 46 25 2 37 -12 37 -45 0 -23 42 -48 61 -36 5 3 13 -5 18 -18 7 -18
4 -28 -16 -50 -14 -14 -23 -32 -21 -40 3 -7 1 -26 -3 -41 -6 -21 -3 -39 11
-65 11 -20 20 -43 20 -50 0 -7 8 -27 17 -45 10 -18 18 -50 20 -72 6 -80 8 -90
25 -93 9 -2 22 6 28 17 13 25 23 26 45 5 12 -12 15 -27 10 -53 -3 -20 -1 -50
5 -65 8 -22 7 -34 -3 -50 -17 -26 -13 -67 12 -162 10 -37 8 -40 -44 -79 -22
-16 -42 -31 -45 -34 -3 -4 -14 -11 -25 -17 -11 -5 -37 -20 -58 -33 -44 -27
-37 -37 -76 120 -29 118 -61 192 -115 269 -25 35 -30 51 -25 70 38 128 47 171
40 192 -18 59 -103 216 -114 212 -7 -2 -20 9 -30 26 -10 16 -24 30 -32 30 -7
0 -23 13 -35 30 -12 16 -32 33 -46 36 -13 4 -29 15 -35 25 -7 13 -21 19 -45
19 -19 0 -46 8 -60 17 -41 27 -245 38 -306 17 -20 -7 -53 -15 -75 -18 -49 -8
-96 -30 -157 -74 -27 -20 -63 -43 -80 -52 -31 -15 -72 -76 -77 -115 -2 -11 -6
102 -9 250 -3 149 -4 272 -3 274 1 2 21 -4 45 -13 28 -11 52 -30 68 -54 14
-20 29 -40 34 -43 9 -7 66 -3 95 6 11 3 25 -4 39 -20 18 -21 30 -25 74 -25 29
1 64 -1 78 -2 23 -3 25 0 27 49 1 29 -2 55 -7 58 -14 9 11 45 31 45 9 0 43 14
75 32 66 35 94 37 132 8 22 -18 27 -19 40 -6 13 13 12 18 -12 46 -14 17 -26
35 -26 38 0 13 -73 57 -98 59 -34 3 -72 30 -72 51 0 10 11 28 24 39 21 19 23
26 16 57 -12 54 -37 88 -63 84 -14 -2 -25 5 -33 20 -18 35 -44 49 -107 57 -51
7 -58 10 -63 34 -8 34 -40 68 -70 75 -13 4 -28 15 -34 26 -14 26 -47 26 -55 0
-12 -38 -53 -54 -132 -51 -25 1 -35 8 -47 33 -19 37 -21 107 -4 143 9 21 9 28
-1 34 -19 12 13 121 35 121 8 0 14 -6 13 -12z m-3500 -54 c34 -28 40 -51 16
-60 -11 -5 -14 -18 -11 -49 2 -24 0 -49 -4 -55 -4 -7 1 -33 12 -59 33 -75 36
-76 77 -32 36 39 36 39 101 35 150 -10 135 -5 134 -46 -1 -25 -11 -49 -34 -78
l-33 -41 23 -25 23 -24 -24 -1 c-29 0 -350 0 -363 0 -4 1 -5 9 -1 19 4 9 8 39
10 67 1 43 -2 54 -27 79 -16 16 -32 43 -35 60 -3 17 -9 38 -14 47 -4 8 -10 38
-14 65 -3 27 -8 57 -11 67 -4 12 -1 17 8 16 15 -3 43 6 78 26 37 20 55 18 89
-11z m-549 -124 c-7 -13 -6 -21 5 -30 19 -16 19 -35 -1 -65 -24 -36 -12 -69
29 -82 26 -8 40 -7 58 3 32 18 56 17 63 -2 11 -29 6 -44 -19 -56 -13 -6 -27
-19 -30 -29 -12 -35 -27 -33 -125 22 -51 29 -72 21 -60 -22 15 -51 -8 -74 -73
-74 -42 0 -61 -6 -97 -31 -25 -18 -75 -47 -110 -66 l-65 -35 3 -59 c2 -53 0
-60 -20 -69 -13 -6 -24 -20 -26 -33 -6 -37 -97 -83 -120 -60 -15 15 -42 2 -42
-21 0 -12 13 -25 37 -36 20 -10 47 -28 60 -41 13 -13 31 -24 39 -24 8 0 25 -7
38 -15 14 -9 53 -17 96 -19 58 -2 75 -7 83 -21 8 -15 6 -22 -11 -33 -44 -29
-21 -60 31 -42 25 9 44 8 85 -2 63 -17 153 -8 178 16 8 9 28 16 44 16 40 0
130 72 130 104 0 26 -23 40 -51 31 -9 -3 -20 -1 -24 4 -12 20 25 57 75 75 54
19 59 24 65 58 7 37 27 78 37 78 6 0 8 -179 7 -460 -1 -253 -4 -460 -5 -460
-1 0 -14 24 -27 53 -14 28 -36 64 -49 78 -121 134 -168 177 -201 183 -7 1 -28
12 -47 24 -19 12 -38 23 -42 23 -11 2 -16 3 -67 18 -46 13 -164 17 -241 8
-121 -15 -145 -25 -283 -118 -72 -50 -91 -69 -149 -155 -93 -139 -117 -234
-87 -347 6 -23 22 -56 35 -74 29 -38 30 -53 5 -53 -23 0 -62 -50 -66 -85 -3
-32 -23 -55 -46 -55 -15 0 -19 -8 -19 -39 0 -22 -4 -43 -10 -46 -5 -3 -10 -16
-10 -28 0 -12 -9 -35 -19 -51 -15 -23 -17 -35 -9 -63 7 -27 6 -40 -6 -59 -18
-27 -22 -60 -11 -87 7 -16 4 -17 -21 -11 -32 7 -57 32 -48 46 3 5 -4 12 -15
15 -16 4 -20 11 -16 24 5 14 -2 24 -28 39 -62 37 -74 100 -41 220 29 104 29
120 4 170 -24 48 -27 85 -5 76 8 -3 21 -9 29 -12 9 -3 20 5 29 23 13 23 13 34
3 58 -15 36 -15 38 22 145 16 47 27 96 25 110 -11 71 -45 158 -72 184 -23 22
-29 35 -25 55 3 15 -1 54 -10 86 -9 34 -12 63 -7 68 14 14 51 -2 52 -21 0 -9
1 -47 3 -83 2 -71 18 -99 55 -99 18 0 54 35 64 63 7 20 46 -23 59 -65 13 -43
21 -51 73 -78 61 -31 82 -8 90 99 6 88 13 105 63 161 32 37 39 51 35 74 -7 36
-47 63 -68 46 -12 -10 -15 -9 -16 6 -1 11 -2 34 -3 52 -1 21 3 32 12 32 16 0
62 -45 62 -60 0 -6 9 -10 21 -8 14 2 28 21 48 68 23 57 26 70 17 110 -19 87
-13 160 17 220 49 95 73 107 97 49 25 -59 63 -32 100 71 12 36 33 80 46 99 12
18 20 39 17 46 -3 8 5 15 19 17 15 2 29 16 40 38 9 19 17 32 18 28 0 -10 70
20 87 38 8 8 25 14 37 14 12 0 35 14 51 30 16 17 34 30 41 30 6 0 18 10 26 23
28 41 72 86 80 81 4 -3 4 -13 -2 -24z m-275 -1370 c-16 -16 -34 -30 -40 -30
-7 0 -24 -11 -39 -25 -15 -14 -31 -25 -36 -25 -13 0 -22 -39 -16 -70 2 -14 5
-28 5 -31 2 -13 36 -22 93 -25 70 -4 92 -14 108 -53 11 -28 15 -30 57 -26 25
3 49 7 54 11 5 3 16 -1 24 -9 16 -17 38 -13 92 14 l37 19 13 -22 c14 -28 8
-60 -24 -115 -27 -47 -46 -58 -63 -37 -7 8 -21 14 -31 14 -11 0 -29 16 -43 38
-48 77 -72 77 -95 0 -7 -24 -24 -62 -38 -85 -20 -34 -23 -49 -17 -85 20 -132
-8 -156 -121 -98 -60 31 -101 36 -165 22 -44 -10 -70 -5 -70 14 0 18 -49 66
-61 59 -15 -10 -2 45 15 64 10 11 19 27 20 37 2 10 11 23 22 28 10 6 22 15 26
21 4 5 22 15 40 21 24 8 33 17 32 33 0 11 2 21 5 21 3 0 19 11 35 25 16 14 35
25 41 25 7 0 18 6 24 14 29 35 -55 37 -215 6 -30 -7 -60 -20 -75 -35 -13 -14
-33 -34 -43 -45 -11 -11 -25 -20 -32 -20 -6 0 -19 -11 -28 -25 -26 -39 -37
-31 -30 23 10 77 13 86 34 112 11 14 32 46 46 73 33 58 68 66 79 17 4 -16 10
-30 13 -31 4 0 15 -2 25 -4 20 -4 104 22 125 38 6 5 12 17 12 26 0 23 97 116
140 134 19 9 48 16 64 16 l30 1 -29 -30z m4944 1 c11 -15 34 -34 51 -41 51
-21 43 -28 -45 -35 -27 -2 -71 -10 -97 -18 -56 -17 -68 -5 -31 31 13 12 21 27
18 33 -10 16 35 59 61 59 14 0 31 -12 43 -29z m357 -88 c41 -58 58 -113 34
-113 -5 0 -43 24 -84 53 l-74 53 13 37 c7 21 19 44 26 53 12 15 15 15 27 -2 7
-11 33 -47 58 -81z m-236 13 c-7 -7 -14 -6 -21 1 -9 9 -7 12 9 10 14 -1 18 -5
12 -11z m-575 -67 c22 -2 63 1 90 5 59 11 78 10 128 -8 33 -11 36 -14 22 -26
-27 -22 -18 -48 18 -55 41 -8 122 -15 170 -16 24 0 46 -8 58 -20 10 -10 32
-19 48 -19 19 0 34 -8 45 -24 9 -14 27 -26 43 -28 17 -2 33 -13 42 -30 14 -25
14 -29 -8 -58 -16 -22 -21 -39 -17 -56 l6 -24 -42 22 c-50 26 -142 32 -175 12
-12 -8 -29 -11 -38 -8 -17 7 -95 -67 -95 -90 0 -7 12 -19 28 -26 23 -11 24
-14 8 -18 -10 -2 -23 1 -29 7 -19 19 -54 12 -71 -14 -9 -14 -20 -25 -25 -25
-17 0 10 73 42 112 26 33 30 45 28 95 -2 79 -10 114 -31 138 -10 11 -20 31
-22 44 -1 13 -10 27 -18 31 -68 34 -83 36 -86 12 -2 -19 -17 -41 -24 -37 -13
8 -40 -24 -40 -45 0 -11 -11 -27 -25 -36 -31 -21 -47 -10 -65 47 -8 22 -22 46
-33 54 -16 11 -17 17 -7 35 6 12 9 28 6 37 -8 21 3 36 18 24 6 -5 29 -11 51
-12z m-3929 -738 c-4 -5 -7 -111 -7 -235 -1 -218 -2 -225 -20 -215 -10 5 -19
13 -20 17 -5 48 -5 74 1 109 6 37 4 46 -16 68 -29 32 -48 33 -39 3 4 -13 7
-25 7 -28 0 -25 -5 -30 -27 -26 -17 3 -25 0 -25 -9 0 -8 -6 -12 -13 -9 -7 2
-30 -2 -50 -11 -54 -22 -65 -18 -32 13 17 15 44 45 60 67 16 22 42 55 57 73
15 18 48 68 74 112 25 44 48 80 50 80 3 0 3 -4 0 -9z m3802 -29 c-6 -20 14
-92 25 -92 7 -1 5 -6 -5 -14 -25 -19 -22 -50 13 -143 11 -28 2 -53 -16 -47 -8
3 -20 -6 -29 -23 l-15 -28 -1 25 c-1 36 -2 324 -1 332 1 4 8 5 16 2 8 -3 14
-9 13 -12z m-4255 -499 c23 -25 23 -25 -48 -23 -38 1 -54 6 -69 23 l-18 22 53
16 c49 14 54 14 57 0 2 -9 13 -26 25 -38z m-176 -2 c-7 -14 -22 -41 -34 -59
-12 -18 -20 -39 -17 -47 3 -7 1 -22 -5 -33 -7 -14 -6 -25 6 -42 15 -22 15 -24
-6 -42 -24 -18 -58 -23 -76 -10 -6 4 -27 30 -46 57 -37 52 -54 119 -43 173 5
26 9 28 52 27 26 0 67 2 92 5 25 3 55 4 67 2 19 -4 20 -7 10 -31z"/>
</g>
</svg>
